<?xml version="1.0" encoding="utf-8"?>
<!-- Svg Vector Icons : http://www.onlinewebfonts.com/icon -->
<!DOCTYPE svg PUBLIC "-//W3C//DTD SVG 1.1//EN" "http://www.w3.org/Graphics/SVG/1.1/DTD/svg11.dtd">
<svg version="1.1" xmlns="http://www.w3.org/2000/svg" xmlns:xlink="http://www.w3.org/1999/xlink" x="0px" y="0px" viewBox="0 0 256 256" enable-background="new 0 0 256 256" xml:space="preserve">
<metadata> Svg Vector Icons : http://www.onlinewebfonts.com/icon </metadata>
<g><g><g><path stroke-width="2" fill-opacity="0" stroke="#000000"  d="M116.7,10.5C64.8,15.4,21.4,55,12.1,106.1c-7.2,39.2,4.9,78,33.1,105.9c31.3,31.1,77.7,42,119.8,28.1c17.8-5.9,33.3-15.4,46.5-28.6c21.3-21.3,33.3-49,34.5-79.3c1.5-41.3-18.6-80.2-53.6-103.1C170.6,14.8,143.1,8,116.7,10.5z M144.4,26.1c22,3.7,40.8,13.3,56.5,29.1c13.3,13.3,22.2,28.8,26.9,46.7c2.6,10,3.2,15,3.2,26c0,11.1-0.6,16.7-3.2,26.5c-9.4,35.8-37.7,64.2-73.5,73.5c-9.9,2.6-15.5,3.3-26.5,3.2c-10.9,0-16-0.6-26-3.2c-17.9-4.7-33.4-13.6-46.7-26.9c-16-16.1-25.6-35.1-29.3-57.9c-1.1-7.1-1.1-22.9,0-30c3.7-23,13.3-41.9,29.3-57.9C72.6,37.6,94.8,27.3,119.7,25C124.7,24.5,139,25.2,144.4,26.1z"/><path stroke-width="2" fill-opacity="0" stroke="#000000"  d="M97.8,71.2c-2.3,2.9-4.2,5.5-4.3,5.7c-0.1,0.2,14.2,11.7,31.7,25.6c17.5,13.9,31.8,25.4,31.8,25.6c0,0.2-14.3,11.7-31.8,25.6c-17.5,13.8-31.8,25.3-31.8,25.5c0,0.3,8.7,11.2,9,11.2c0.5,0,78.4-61.9,78.4-62.3c0-0.5-78-62.3-78.5-62.2C102.1,65.8,100.1,68.2,97.8,71.2z"/></g></g></g>
</svg>